<?xml version="1.0" encoding="UTF-8" standalone="no"?>
<svg width="30px" height="46px" viewBox="0 0 30 46" version="1.1" xmlns="http://www.w3.org/2000/svg" xmlns:xlink="http://www.w3.org/1999/xlink">
    <!-- Generator: Sketch 39.1 (31720) - http://www.bohemiancoding.com/sketch -->
    <title>Screensaver</title>
    <desc>Created with Sketch.</desc>
    <defs></defs>
    <g id="Concept-2.0" stroke="none" stroke-width="1" fill="none" fill-rule="evenodd" fill-opacity="0.949999988">
        <g id="Screensaver_None" transform="translate(-718.000000, -871.000000)" fill="#787AFF">
            <g id="Screensavers" transform="translate(539.000000, 871.000000)">
                <g id="Screensaver" transform="translate(179.000000, 0.000000)">
                    <g id="Screensaver-icon">
                        <g id="Group">
                            <path d="M29.8545,9.41247619 L29.855,3.7462619 C29.855,2.21457143 29.004,0.900285714 27.7915,0.33952381 C27.3875,0.152238095 26.943,0.0481904762 26.476,0.0481904762 L15.011,0.0487380952 L3.5235,0.0481904762 C3.057,0.0481904762 2.6125,0.151690476 2.208,0.33952381 C0.9955,0.900285714 0.1445,2.21402381 0.145,3.7462619 L0.1455,9.41247619 L0.1485,9.41247619 L0.1445,42.2542857 C0.1445,44.2952619 1.655,45.9501667 3.5185,45.9501667 L9.453,45.9507143 C9.4525,45.9512619 9.4525,45.9512619 9.452,45.9518095 L15.007,45.9512619 L20.5475,45.9518095 C20.547,45.9512619 20.547,45.9512619 20.5465,45.9507143 L26.481,45.9501667 C28.3445,45.9501667 29.8555,44.2952619 29.855,42.2542857 L29.8515,9.41192857 L29.8545,9.41192857 L29.8545,9.41247619 Z M16.634,44.0307619 L13.366,44.0307619 C12.881,44.0307619 12.488,43.6003333 12.488,43.0691429 C12.488,42.8829524 12.537,42.7099048 12.6205,42.5625952 C12.656,42.499619 12.6975,42.4410238 12.745,42.389 C12.904,42.2148571 13.1235,42.1075238 13.366,42.1075238 L16.634,42.1075238 C16.9675,42.1075238 17.2575,42.3112381 17.406,42.6107857 C17.4735,42.7471429 17.512,42.9032143 17.512,43.0691429 C17.512,43.2350714 17.4735,43.3911429 17.406,43.5275 C17.2575,43.8270476 16.9675,44.0307619 16.634,44.0307619 L16.634,44.0307619 Z M26.6135,40.2067381 L19.059,40.2067381 L3.386,40.2067381 C2.79,40.2067381 2.307,39.6777381 2.307,39.0249762 L2.307,9.41247619 L2.307,6.21547619 C2.307,5.78066667 2.522,5.40171429 2.8415,5.19635714 C2.9715,5.11311905 3.118,5.0572619 3.2755,5.0397381 C3.3115,5.03590476 3.3485,5.03371429 3.386,5.03371429 L26.6135,5.03371429 C26.8275,5.03371429 27.0265,5.10271429 27.1945,5.221 C27.4935,5.43128571 27.6925,5.79764286 27.6925,6.21547619 L27.6925,9.41247619 L27.6925,39.0249762 C27.6925,39.6777381 27.2095,40.2067381 26.6135,40.2067381 Z" id="Shape"></path>
                        </g>
                    </g>
                </g>
            </g>
        </g>
    </g>
</svg>