<?xml version="1.0" encoding="UTF-8" standalone="no"?>
<svg width="55px" height="84px" viewBox="0 0 55 84" version="1.1" xmlns="http://www.w3.org/2000/svg" xmlns:xlink="http://www.w3.org/1999/xlink">
    <!-- Generator: Sketch 39.1 (31720) - http://www.bohemiancoding.com/sketch -->
    <title>Group</title>
    <desc>Created with Sketch.</desc>
    <defs></defs>
    <g id="Concept-2.0" stroke="none" stroke-width="1" fill="none" fill-rule="evenodd" fill-opacity="0.949999988">
        <g id="Menu" transform="translate(-693.000000, -1211.000000)" fill="#CECECE">
            <g id="Screensavers" transform="translate(539.000000, 1211.000000)">
                <g id="Screensaver" transform="translate(154.000000, 0.000000)">
                    <g id="Screensaver-icon">
                        <g id="Group">
                            <path d="M54.73325,17.188 L54.7341667,6.841 C54.7341667,4.044 53.174,1.644 50.9510833,0.62 C50.2104167,0.278 49.3955,0.088 48.5393333,0.088 L27.5201667,0.089 L6.45975,0.088 C5.6045,0.088 4.78958333,0.277 4.048,0.62 C1.82508333,1.644 0.264916667,4.043 0.265833333,6.841 L0.26675,17.188 L0.27225,17.188 L0.264916667,77.16 C0.264916667,80.887 3.03416667,83.909 6.45058333,83.909 L17.3305,83.91 C17.3295833,83.911 17.3295833,83.911 17.3286667,83.912 L27.5128333,83.911 L37.6704167,83.912 C37.6695,83.911 37.6695,83.911 37.6685833,83.91 L48.5485,83.909 C51.9649167,83.909 54.7350833,80.887 54.7341667,77.16 L54.72775,17.187 L54.73325,17.187 L54.73325,17.188 Z M30.4956667,80.404 L24.5043333,80.404 C23.6151667,80.404 22.8946667,79.618 22.8946667,78.648 C22.8946667,78.308 22.9845,77.992 23.1375833,77.723 C23.2026667,77.608 23.27875,77.501 23.3658333,77.406 C23.6573333,77.088 24.05975,76.892 24.5043333,76.892 L30.4956667,76.892 C31.1070833,76.892 31.63875,77.264 31.911,77.811 C32.03475,78.06 32.1053333,78.345 32.1053333,78.648 C32.1053333,78.951 32.03475,79.236 31.911,79.485 C31.63875,80.032 31.1070833,80.404 30.4956667,80.404 L30.4956667,80.404 Z M50.7695833,71.263 C50.7695833,72.455 49.8840833,73.421 48.7914167,73.421 L34.9415,73.421 L6.20766667,73.421 C5.115,73.421 4.2295,72.455 4.2295,71.263 L4.2295,17.188 L4.2295,17.188 L4.2295,11.35 C4.2295,10.556 4.62366667,9.864 5.20941667,9.489 C5.44775,9.337 5.71633333,9.235 6.00508333,9.203 C6.07108333,9.196 6.13891667,9.192 6.20766667,9.192 L48.7914167,9.192 C49.18375,9.192 49.5485833,9.318 49.8565833,9.534 C50.40475,9.918 50.7695833,10.587 50.7695833,11.35 L50.7695833,17.188 L50.7695833,17.188 L50.7695833,71.263 L50.7695833,71.263 Z" id="Shape"></path>
                        </g>
                    </g>
                </g>
            </g>
        </g>
    </g>
</svg>