<?xml version="1.0" encoding="UTF-8" standalone="no"?>
<svg width="64px" height="89px" viewBox="0 0 64 89" version="1.1" xmlns="http://www.w3.org/2000/svg" xmlns:xlink="http://www.w3.org/1999/xlink" xmlns:sketch="http://www.bohemiancoding.com/sketch/ns">
    <!-- Generator: Sketch 3.4.4 (17249) - http://www.bohemiancoding.com/sketch -->
    <title>Screensaver icon</title>
    <desc>Created with Sketch.</desc>
    <defs></defs>
    <g id="Welcome" stroke="none" stroke-width="1" fill="none" fill-rule="evenodd" sketch:type="MSPage">
        <g id="Tabs" sketch:type="MSArtboardGroup" transform="translate(-85.000000, -299.000000)" fill-opacity="0.949999988" fill="#00F5EA">
            <g id="Screensaver" sketch:type="MSLayerGroup" transform="translate(85.000000, 290.000000)">
                <g id="Screensaver-icon" transform="translate(0.000000, 9.000000)" sketch:type="MSShapeGroup">
                    <g id="Group">
                        <path d="M50.6186667,46.9104167 C50.0384,44.5476786 48.8437333,42.5155119 47.2416,40.7164405 C45.1146667,38.3272143 42.5642667,36.757 39.5242667,36.1573095 C30.2613333,30.3415833 23.2992,33.7204048 23.2992,33.7204048 C22.8693333,33.929131 22.6762667,34.4546548 22.8693333,34.8890595 L24.9984,39.6770476 C23.8581333,40.495 22.7349333,41.3012976 21.6053333,42.097 C21.1946667,42.38625 20.7466667,42.628881 20.2986667,42.8577381 C19.8826667,43.0707024 19.4826667,42.9944167 19.1413333,42.6702024 C18.88,42.4222738 18.6229333,42.1679881 18.3605333,41.9200595 C16.5866667,40.2428333 14.5024,39.3634286 12.0288,39.5287143 C11.8112,39.5435476 11.4901333,39.7120119 11.4293333,39.8836548 C11.3674667,40.0584762 11.5221333,40.359381 11.6629333,40.5447976 C12.4533333,41.5884286 13.3312,42.5727262 14.048,43.6619167 C14.4554667,44.2806786 14.7050667,45.0414167 14.8597333,45.7735476 C15.0805333,46.811881 14.6848,47.7887619 14.1088,48.6257857 C13.3365333,49.748881 12.4394667,50.7872143 11.6181333,51.8785238 C11.488,52.0512262 11.3781333,52.334119 11.4314667,52.5163571 C11.4762667,52.667869 11.776,52.8448095 11.9584,52.8405714 C12.7488,52.8225595 13.5541333,52.8183214 14.3253333,52.6689286 C16.1226667,52.3203452 17.5530667,51.3148571 18.8074667,50.0264762 C19.5178667,49.2964643 19.8485333,49.2106429 20.7712,49.6503452 C21.5637333,50.0285952 22.3221333,50.48525 23.0613333,50.9588571 C24.3786667,51.8032976 25.6789333,52.6784643 27.0101333,53.5631667 L27.008,53.5621071 L23.7856,55.4575952 C23.3738667,55.6991667 23.3077333,56.179131 23.6373333,56.5224167 C23.6373333,56.5224167 27.6416,60.698 34.7178667,56.2713095 L34.7157333,56.27025 C38.5098667,56.4207024 42.0949333,55.6366548 45.4592,53.8725476 C47.1904,52.9645357 48.7541333,51.840381 49.9296,50.2479167 C50.6762667,49.241369 50.9226667,48.146881 50.6186667,46.9104167 L50.6186667,46.9104167 Z M41.12,46.6614286 C40.016,46.6614286 39.1210667,45.7724881 39.1210667,44.675881 C39.1210667,44.0475833 39.4154667,43.4881548 39.8741333,43.1236786 C40.2176,42.8217143 40.6666667,42.6394762 41.1509333,42.6437143 C41.7386667,42.6500714 42.2688,42.9297857 42.6165333,43.3578333 C42.9301333,43.7085357 43.12,44.1694286 43.12,44.6748214 C43.1189333,45.7724881 42.224,46.6614286 41.12,46.6614286 L41.12,46.6614286 Z M63.6896,18.2110952 L63.6906667,7.24820238 C63.6906667,4.28471429 61.8752,1.74185714 59.2885333,0.656904762 C58.4266667,0.294547619 57.4784,0.0932380952 56.4821333,0.0932380952 L32.0234667,0.094297619 L7.5168,0.0932380952 C6.5216,0.0932380952 5.57333333,0.293488095 4.7104,0.656904762 C2.12373333,1.74185714 0.308266667,4.28365476 0.309333333,7.24820238 L0.3104,18.2110952 L0.3168,18.2110952 L0.308266667,81.7528571 C0.308266667,85.7017024 3.53066667,88.9035833 7.50613333,88.9035833 L20.1664,88.9046429 C20.1653333,88.9057024 20.1653333,88.9057024 20.1642667,88.9067619 L32.0149333,88.9057024 L43.8346667,88.9067619 C43.8336,88.9057024 43.8336,88.9057024 43.8325333,88.9046429 L56.4928,88.9035833 C60.4682667,88.9035833 63.6917333,85.7017024 63.6906667,81.7528571 L63.6832,18.2100357 L63.6896,18.2100357 L63.6896,18.2110952 Z M35.4858667,85.1899524 L28.5141333,85.1899524 C27.4794667,85.1899524 26.6410667,84.3571667 26.6410667,83.3294286 C26.6410667,82.9691905 26.7456,82.634381 26.9237333,82.349369 C26.9994667,82.2275238 27.088,82.1141548 27.1893333,82.0135 C27.5285333,81.6765714 27.9968,81.4689048 28.5141333,81.4689048 L35.4858667,81.4689048 C36.1973333,81.4689048 36.816,81.8630476 37.1328,82.4426071 C37.2768,82.7064286 37.3589333,83.0083929 37.3589333,83.3294286 C37.3589333,83.6504643 37.2768,83.9524286 37.1328,84.21625 C36.816,84.7958095 36.1973333,85.1899524 35.4858667,85.1899524 L35.4858667,85.1899524 Z M59.0773333,75.5048452 C59.0773333,76.7677976 58.0469333,77.7912976 56.7754667,77.7912976 L40.6592,77.7912976 L7.22346667,77.7912976 C5.952,77.7912976 4.9216,76.7677976 4.9216,75.5048452 L4.9216,18.2110952 L4.9216,18.2110952 L4.9216,12.0255952 C4.9216,11.1843333 5.38026667,10.4511429 6.06186667,10.0538214 C6.3392,9.89277381 6.65173333,9.78470238 6.98773333,9.75079762 C7.06453333,9.74338095 7.14346667,9.73914286 7.22346667,9.73914286 L56.7754667,9.73914286 C57.232,9.73914286 57.6565333,9.87264286 58.0149333,10.1015 C58.6528,10.5083571 59.0773333,11.2171786 59.0773333,12.0255952 L59.0773333,18.2110952 L59.0773333,18.2110952 L59.0773333,75.5048452 L59.0773333,75.5048452 Z" id="Shape"></path>
                    </g>
                </g>
            </g>
        </g>
    </g>
</svg>