<?xml version="1.0" encoding="UTF-8" standalone="no"?>
<svg width="157px" height="137px" viewBox="0 0 157 137" version="1.1" xmlns="http://www.w3.org/2000/svg" xmlns:xlink="http://www.w3.org/1999/xlink" xmlns:sketch="http://www.bohemiancoding.com/sketch/ns">
    <!-- Generator: Sketch 3.4.4 (17249) - http://www.bohemiancoding.com/sketch -->
    <title>Calendar icon</title>
    <desc>Created with Sketch.</desc>
    <defs></defs>
    <g id="Welcome" stroke="none" stroke-width="1" fill="none" fill-rule="evenodd" sketch:type="MSPage">
        <g id="Goodmorning---Opening" sketch:type="MSArtboardGroup" transform="translate(-306.000000, -830.000000)">
            <g id="Calendar-icon" sketch:type="MSLayerGroup" transform="translate(306.000000, 830.000000)">
                <g id="1f4c5" sketch:type="MSShapeGroup">
                    <g id="Group">
                        <path d="M7.56201538,37.0878571 C7.56201538,37.0878571 68.2804462,0.611607143 76.0543231,0.611607143 C83.8282,0.611607143 147.433092,37.0878571 147.433092,37.0878571" id="Shape" stroke="#BA9372"></path>
                        <path d="M157,129.154304 C157,133.151768 153.817554,136.393286 149.889031,136.393286 L12.8799538,136.393286 C8.95143077,136.393286 5.76409231,133.151768 5.76409231,129.154304 L5.76409231,41.8755179 C5.76409231,37.8780536 8.95143077,34.6365357 12.8799538,34.6365357 L149.889031,34.6365357 C153.817554,34.6365357 157,37.8780536 157,41.8755179 L157,129.154304" id="Shape" fill="#93A2AA"></path>
                        <path d="M151.677169,41.8828571 C151.677169,37.8853929 148.487385,34.643875 144.558862,34.643875 L7.54978462,34.643875 C3.62126154,34.643875 0.433923077,37.8853929 0.433923077,41.8828571 L0.433923077,65.0187321 L151.664938,65.0187321 L151.664938,41.8828571" id="Shape" fill="#ED4C5C"></path>
                        <path d="M0.446153846,65.0113929 L0.446153846,129.154304 C0.446153846,133.151768 3.63349231,136.393286 7.56201538,136.393286 L144.558862,136.393286 C148.487385,136.393286 151.677169,133.151768 151.677169,129.154304 L151.677169,65.0113929 L0.446153846,65.0113929 L0.446153846,65.0113929 Z" id="Shape" fill="#D9E3E8"></path>
                        <g transform="translate(5.338462, 68.500000)" id="Shape" fill="#93A2AA">
                            <path d="M1.67561538,2.34123214 L17.2356,2.34123214 L17.2356,7.76985714 L1.67561538,7.76985714 L1.67561538,2.34123214 Z"></path>
                            <path d="M22.0887692,2.34123214 L37.6487538,2.34123214 L37.6487538,7.76985714 L22.0887692,7.76985714 L22.0887692,2.34123214 Z"></path>
                            <path d="M42.5190462,2.34123214 L58.0814769,2.34123214 L58.0814769,7.76985714 L42.5190462,7.76985714 L42.5190462,2.34123214 Z"></path>
                            <path d="M62.9419846,2.34123214 L78.5019692,2.34123214 L78.5019692,7.76985714 L62.9419846,7.76985714 L62.9419846,2.34123214 Z"></path>
                            <path d="M83.3649231,2.34123214 L98.9249077,2.34123214 L98.9249077,7.76985714 L83.3649231,7.76985714 L83.3649231,2.34123214 Z"></path>
                            <path d="M103.790308,2.34123214 L119.352738,2.34123214 L119.352738,7.76985714 L103.790308,7.76985714 L103.790308,2.34123214 Z"></path>
                            <path d="M124.2108,2.34123214 L139.770785,2.34123214 L139.770785,7.76985714 L124.2108,7.76985714 L124.2108,2.34123214 Z"></path>
                            <path d="M62.9419846,13.2107143 L78.5019692,13.2107143 L78.5019692,18.6417857 L62.9419846,18.6417857 L62.9419846,13.2107143 Z"></path>
                            <path d="M83.3649231,13.2107143 L98.9249077,13.2107143 L98.9249077,18.6417857 L83.3649231,18.6417857 L83.3649231,13.2107143 Z"></path>
                            <path d="M103.790308,13.2107143 L119.352738,13.2107143 L119.352738,18.6417857 L103.790308,18.6417857 L103.790308,13.2107143 Z"></path>
                            <path d="M124.2108,13.2107143 L139.770785,13.2107143 L139.770785,18.6417857 L124.2108,18.6417857 L124.2108,13.2107143 Z"></path>
                            <path d="M1.67561538,24.0581786 L17.2356,24.0581786 L17.2356,29.4868036 L1.67561538,29.4868036 L1.67561538,24.0581786 Z"></path>
                            <path d="M22.0887692,24.0581786 L37.6487538,24.0581786 L37.6487538,29.4868036 L22.0887692,29.4868036 L22.0887692,24.0581786 Z"></path>
                            <path d="M42.5190462,24.0581786 L58.0814769,24.0581786 L58.0814769,29.4868036 L42.5190462,29.4868036 L42.5190462,24.0581786 Z"></path>
                            <path d="M62.9419846,24.0581786 L78.5019692,24.0581786 L78.5019692,29.4868036 L62.9419846,29.4868036 L62.9419846,24.0581786 Z"></path>
                            <path d="M83.3649231,24.0581786 L98.9249077,24.0581786 L98.9249077,29.4868036 L83.3649231,29.4868036 L83.3649231,24.0581786 Z"></path>
                            <path d="M103.790308,24.0581786 L119.352738,24.0581786 L119.352738,29.4868036 L103.790308,29.4868036 L103.790308,24.0581786 Z"></path>
                            <path d="M124.2108,24.0581786 L139.770785,24.0581786 L139.770785,29.4868036 L124.2108,29.4868036 L124.2108,24.0581786 Z"></path>
                            <path d="M1.67561538,34.9105357 L17.2356,34.9105357 L17.2356,40.3416071 L1.67561538,40.3416071 L1.67561538,34.9105357 Z"></path>
                            <path d="M22.0887692,34.9105357 L37.6487538,34.9105357 L37.6487538,40.3416071 L22.0887692,40.3416071 L22.0887692,34.9105357 Z"></path>
                            <path d="M42.5190462,34.9105357 L58.0814769,34.9105357 L58.0814769,40.3416071 L42.5190462,40.3416071 L42.5190462,34.9105357 Z"></path>
                            <path d="M62.9419846,34.9105357 L78.5019692,34.9105357 L78.5019692,40.3416071 L62.9419846,40.3416071 L62.9419846,34.9105357 Z"></path>
                            <path d="M83.3649231,34.9105357 L98.9249077,34.9105357 L98.9249077,40.3416071 L83.3649231,40.3416071 L83.3649231,34.9105357 Z"></path>
                            <path d="M103.790308,34.9105357 L119.352738,34.9105357 L119.352738,40.3416071 L103.790308,40.3416071 L103.790308,34.9105357 Z"></path>
                            <path d="M124.2108,34.9105357 L139.770785,34.9105357 L139.770785,40.3416071 L124.2108,40.3416071 L124.2108,34.9105357 Z"></path>
                            <path d="M1.67561538,45.775125 L17.2356,45.775125 L17.2356,51.20375 L1.67561538,51.20375 L1.67561538,45.775125 Z"></path>
                            <path d="M22.0887692,45.775125 L37.6487538,45.775125 L37.6487538,51.20375 L22.0887692,51.20375 L22.0887692,45.775125 Z"></path>
                            <path d="M42.5190462,45.775125 L58.0814769,45.775125 L58.0814769,51.20375 L42.5190462,51.20375 L42.5190462,45.775125 Z"></path>
                            <path d="M62.9419846,45.775125 L78.5019692,45.775125 L78.5019692,51.20375 L62.9419846,51.20375 L62.9419846,45.775125 Z"></path>
                            <path d="M83.3649231,45.775125 L98.9249077,45.775125 L98.9249077,51.20375 L83.3649231,51.20375 L83.3649231,45.775125 Z"></path>
                            <path d="M103.790308,45.775125 L119.352738,45.775125 L119.352738,51.20375 L103.790308,51.20375 L103.790308,45.775125 Z"></path>
                            <path d="M124.2108,45.775125 L139.770785,45.775125 L139.770785,51.20375 L124.2108,51.20375 L124.2108,45.775125 Z"></path>
                            <path d="M1.67561538,56.6348214 L17.2356,56.6348214 L17.2356,62.0658929 L1.67561538,62.0658929 L1.67561538,56.6348214 Z"></path>
                            <path d="M22.0887692,56.6348214 L37.6487538,56.6348214 L37.6487538,62.0658929 L22.0887692,62.0658929 L22.0887692,56.6348214 Z"></path>
                            <path d="M42.5190462,56.6348214 L58.0814769,56.6348214 L58.0814769,62.0658929 L42.5190462,62.0658929 L42.5190462,56.6348214 Z"></path>
                            <path d="M62.9419846,56.6348214 L78.5019692,56.6348214 L78.5019692,62.0658929 L62.9419846,62.0658929 L62.9419846,56.6348214 Z"></path>
                            <path d="M83.3649231,56.6348214 L98.9249077,56.6348214 L98.9249077,62.0658929 L83.3649231,62.0658929 L83.3649231,56.6348214 Z"></path>
                            <path d="M103.790308,56.6348214 L119.352738,56.6348214 L119.352738,62.0658929 L103.790308,62.0658929 L103.790308,56.6348214 Z"></path>
                        </g>
                        <ellipse id="Oval" fill="#333333" cx="76.6193846" cy="5.49957143" rx="4.75776923" ry="4.75830357"></ellipse>
                        <ellipse id="Oval" fill="#93A2AA" cx="76.0616615" cy="5.49957143" rx="4.75776923" ry="4.75830357"></ellipse>
                    </g>
                </g>
                <text id="MONTH" sketch:type="MSTextLayer" font-family="Avenir" font-size="20" font-weight="686" sketch:alignment="middle" fill="#E8E8E8">
                    <tspan x="38.021511" y="58">MONTH</tspan>
                </text>
            </g>
        </g>
    </g>
</svg>