<?xml version="1.0" encoding="UTF-8" standalone="no"?>
<svg width="88px" height="73px" viewBox="0 0 88 73" version="1.1" xmlns="http://www.w3.org/2000/svg" xmlns:xlink="http://www.w3.org/1999/xlink" xmlns:sketch="http://www.bohemiancoding.com/sketch/ns">
    <!-- Generator: Sketch 3.4.4 (17249) - http://www.bohemiancoding.com/sketch -->
    <title>Quotes icon</title>
    <desc>Created with Sketch.</desc>
    <defs></defs>
    <g id="Welcome" stroke="none" stroke-width="1" fill="none" fill-rule="evenodd" sketch:type="MSPage">
        <g id="Tabs" sketch:type="MSArtboardGroup" transform="translate(-73.000000, -1162.000000)" fill-opacity="0.95" fill="#FFE620">
            <g id="Quotes" sketch:type="MSLayerGroup" transform="translate(73.000000, 1147.000000)">
                <g id="Quotes-icon" transform="translate(0.000000, 15.000000)" sketch:type="MSShapeGroup">
                    <g id="Group">
                        <path d="M0.438,36.5 L0.438,72.375 L36.313,72.375 L36.313,36.5 L15.813,36.5 C15.813,25.179 24.992,16 36.313,16 L36.313,0.625 C16.498,0.625 0.438,16.686 0.438,36.5 L0.438,36.5 Z M87.562,16 L87.562,0.625 C67.748,0.625 51.687,16.686 51.687,36.5 L51.687,72.375 L87.562,72.375 L87.562,36.5 L67.062,36.5 C67.062,25.179 76.241,16 87.562,16 L87.562,16 Z" id="Shape"></path>
                    </g>
                </g>
            </g>
        </g>
    </g>
</svg>