<?xml version="1.0" encoding="UTF-8" standalone="no"?>
<svg width="140px" height="117px" viewBox="0 0 140 117" version="1.1" xmlns="http://www.w3.org/2000/svg" xmlns:xlink="http://www.w3.org/1999/xlink" xmlns:sketch="http://www.bohemiancoding.com/sketch/ns">
    <!-- Generator: Sketch 3.4.4 (17249) - http://www.bohemiancoding.com/sketch -->
    <title>Shape</title>
    <desc>Created with Sketch.</desc>
    <defs></defs>
    <g id="Welcome" stroke="none" stroke-width="1" fill="none" fill-rule="evenodd" sketch:type="MSPage">
        <g id="Goodmorning---Quote" sketch:type="MSArtboardGroup" transform="translate(-67.000000, -92.000000)" fill="#ECF0F1">
            <g id="Opening-quotes" sketch:type="MSLayerGroup" transform="translate(71.000000, 94.000000)">
                <g id="Group" sketch:type="MSShapeGroup">
                    <path d="M3.55271368e-15,54.353565 L3.55271368e-15,108.70713 L54.353565,108.70713 L54.353565,54.353565 L23.294385,54.353565 C23.294385,37.2013223 37.2013223,23.294385 54.353565,23.294385 L54.353565,0 C24.3322162,0 3.55271368e-15,24.3337312 3.55271368e-15,54.353565 L3.55271368e-15,54.353565 Z M132,23.294385 L132,0 C101.980166,0 77.646435,24.3337312 77.646435,54.353565 L77.646435,108.70713 L132,108.70713 L132,54.353565 L100.94082,54.353565 C100.94082,37.2013223 114.847757,23.294385 132,23.294385 L132,23.294385 Z" id="Shape"></path>
                </g>
            </g>
        </g>
    </g>
</svg>