<svg xmlns="http://www.w3.org/2000/svg" xmlns:xlink="http://www.w3.org/1999/xlink" xmlns:sketch="http://www.bohemiancoding.com/sketch/ns" viewBox="0 0 30 37.5" version="1.1" x="0px" y="0px"><title>arrow_073-back-backward-previous-direction-left</title><desc>Created with Sketch.</desc><g stroke="none" stroke-width="1" fill="none" fill-rule="evenodd" sketch:type="MSPage"><g sketch:type="MSArtboardGroup" transform="translate(-45.000000, -450.000000)" fill="#000000"><path d="M56.8535534,457.853553 C57.0488155,457.658291 57.0488155,457.341709 56.8535534,457.146447 C56.6582912,456.951184 56.3417088,456.951184 56.1464466,457.146447 L49.1464466,464.146447 C48.9511845,464.341709 48.9511845,464.658291 49.1464466,464.853553 L56.1464466,471.853553 C56.3417088,472.048816 56.6582912,472.048816 56.8535534,471.853553 C57.0488155,471.658291 57.0488155,471.341709 56.8535534,471.146447 L50.7071068,465 L70.5,465 C70.7761424,465 71,464.776142 71,464.5 C71,464.223858 70.7761424,464 70.5,464 L50.7071068,464 L56.8535534,457.853553 Z" sketch:type="MSShapeGroup"/></g></g><text x="0" y="45" fill="#000000" font-size="5px" font-weight="bold" font-family="'Helvetica Neue', Helvetica, Arial-Unicode, Arial, Sans-serif">Created by Pham Thi Dieu Linh</text><text x="0" y="50" fill="#000000" font-size="5px" font-weight="bold" font-family="'Helvetica Neue', Helvetica, Arial-Unicode, Arial, Sans-serif">from the Noun Project</text></svg>