<svg xmlns="http://www.w3.org/2000/svg" xmlns:xlink="http://www.w3.org/1999/xlink" version="1.1" x="0px" y="0px" viewBox="0 0 100 100" enable-background="new 0 0 100 100" xml:space="preserve"><g><path d="M84.922,15.539h-2.043c0-3.096-2.51-5.606-5.605-5.606s-5.607,2.51-5.607,5.606h-7.008c0-3.096-2.51-5.606-5.605-5.606   s-5.607,2.51-5.607,5.606h-6.307c0-3.096-2.51-5.606-5.605-5.606c-3.098,0-5.607,2.51-5.607,5.606h-6.307   c0-3.096-2.512-5.606-5.607-5.606s-5.605,2.51-5.605,5.606H16.02c-3.096,0-5.605,2.51-5.605,5.606v63.45   c0,3.096,2.51,5.606,5.605,5.606h68.902c3.096,0,5.607-2.511,5.607-5.606v-63.45C90.529,18.049,88.018,15.539,84.922,15.539z    M79.316,78.989H21.627V43.571h57.689V78.989z"></path></g></svg>