<svg xmlns="http://www.w3.org/2000/svg" xmlns:xlink="http://www.w3.org/1999/xlink" version="1.1" x="0px" y="0px" viewBox="0 0 48 60" enable-background="new 0 0 48 48" xml:space="preserve"><path fill="#000000" d="M24,0.5C11,0.5,0.5,11,0.5,24C0.5,37,11,47.5,24,47.5S47.5,37,47.5,24C47.5,11,37,0.5,24,0.5z M34.4,34.2  c-0.3,0.4-0.7,0.5-1.1,0.5c-0.4,0-0.8-0.1-1.1-0.4l-9.3-9.3c-0.3-0.3-0.4-0.7-0.4-1.1V7.1c0-0.8,0.7-1.5,1.5-1.5s1.5,0.7,1.5,1.5  v15.5c0,0.5,0.2,1,0.6,1.4l8.2,8.2C34.8,32.7,34.9,33.6,34.4,34.2z"/><text x="0" y="63" fill="#000000" font-size="5px" font-weight="bold" font-family="'Helvetica Neue', Helvetica, Arial-Unicode, Arial, Sans-serif">Created by Creative Stall</text><text x="0" y="68" fill="#000000" font-size="5px" font-weight="bold" font-family="'Helvetica Neue', Helvetica, Arial-Unicode, Arial, Sans-serif">from the Noun Project</text></svg>