<svg xmlns="http://www.w3.org/2000/svg" xmlns:xlink="http://www.w3.org/1999/xlink" version="1.1" x="0px" y="0px" viewBox="0 0 100 125" enable-background="new 0 0 100 100" xml:space="preserve"><path fill-rule="evenodd" clip-rule="evenodd" d="M69.4,95.368c-0.039-0.014-0.076-0.033-0.115-0.035  c-1.046-0.064-2.076-0.236-3.099-0.454c-1.541-0.327-3.054-0.765-4.571-1.185c-1.544-0.429-3.091-0.842-4.666-1.146  c-1.243-0.239-2.494-0.411-3.759-0.474c-0.931-0.045-1.863-0.041-2.793,0.05c-1.948,0.187-3.841,0.644-5.727,1.143  c-1.535,0.407-3.066,0.823-4.604,1.222c-1.197,0.31-2.409,0.547-3.638,0.697c-1.117,0.136-2.237,0.186-3.361,0.089  c-2.35-0.2-4.439-1.04-6.256-2.548c-2.404-1.996-3.934-4.518-4.548-7.587c-0.234-1.167-0.305-2.35-0.241-3.54  c0.155-2.888,1.045-5.55,2.444-8.056c1.004-1.799,2.245-3.422,3.672-4.906c0.604-0.629,1.237-1.221,1.896-1.789  c1.513-1.308,2.855-2.776,4.108-4.331c1.25-1.553,2.401-3.179,3.549-4.807c1.134-1.612,2.259-3.232,3.497-4.768  c0.973-1.208,2.01-2.353,3.196-3.354c1.127-0.95,2.355-1.729,3.745-2.242c1.137-0.42,2.308-0.643,3.521-0.667  c1.512-0.033,3.003,0.113,4.473,0.471c2.255,0.549,4.211,1.641,5.893,3.235c1.171,1.109,2.175,2.359,3.071,3.69  c0.975,1.449,1.914,2.918,2.864,4.382c1.078,1.661,2.196,3.291,3.455,4.82c1.138,1.384,2.397,2.648,3.739,3.835  c2.139,1.889,3.97,4.035,5.401,6.515c1.042,1.804,1.814,3.714,2.231,5.76c0.339,1.66,0.426,3.334,0.182,5.014  c-0.41,2.829-1.626,5.261-3.69,7.244c-1.599,1.535-3.454,2.655-5.597,3.271c-0.783,0.224-1.582,0.359-2.395,0.415  c-0.048,0.002-0.093,0.021-0.139,0.035C70.559,95.368,69.979,95.368,69.4,95.368z"/><path fill-rule="evenodd" clip-rule="evenodd" d="M69.23,15.522c0.151,0.025,0.303,0.055,0.454,0.074  c1.745,0.227,3.248,0.967,4.539,2.149c1.28,1.172,2.172,2.609,2.807,4.213c0.53,1.342,0.851,2.735,0.984,4.169  c0.334,3.59-0.313,7.003-1.861,10.248c-0.83,1.743-1.916,3.31-3.298,4.665c-1.219,1.195-2.6,2.149-4.209,2.748  c-1.111,0.413-2.26,0.619-3.446,0.562c-1.919-0.092-3.596-0.792-5.044-2.048c-1.022-0.885-1.811-1.953-2.431-3.15  c-0.785-1.515-1.247-3.129-1.478-4.815c-0.13-0.96-0.183-1.926-0.151-2.895c0.063-1.975,0.415-3.9,1.055-5.769  c0.685-2.002,1.658-3.851,2.988-5.501c1.072-1.333,2.321-2.468,3.811-3.324c1.069-0.614,2.207-1.038,3.429-1.228  c0.188-0.03,0.378-0.044,0.567-0.068c0.034-0.004,0.065-0.021,0.098-0.031C68.438,15.522,68.835,15.522,69.23,15.522z"/><path fill-rule="evenodd" clip-rule="evenodd" d="M9.78,46.476c0.026-0.121,0.067-0.241,0.075-0.364  c0.11-1.326,0.405-2.608,0.941-3.827c0.654-1.485,1.594-2.746,2.933-3.682c1.101-0.77,2.322-1.212,3.659-1.333  c1.588-0.143,3.09,0.186,4.528,0.84c1.234,0.56,2.334,1.323,3.311,2.259c2.439,2.336,3.919,5.198,4.597,8.489  c0.18,0.873,0.264,1.757,0.278,2.65c0.028,1.656-0.212,3.265-0.812,4.813c-0.459,1.187-1.104,2.259-2.001,3.165  c-1.198,1.215-2.64,1.969-4.334,2.216c-1.624,0.239-3.178-0.034-4.678-0.665c-1.379-0.579-2.584-1.419-3.661-2.448  c-1.271-1.213-2.279-2.617-3.068-4.183c-0.773-1.537-1.308-3.154-1.562-4.858c-0.068-0.46-0.112-0.925-0.168-1.386  c-0.006-0.041-0.026-0.079-0.039-0.117C9.78,47.522,9.78,46.999,9.78,46.476z"/><path fill-rule="evenodd" clip-rule="evenodd" d="M49.266,31.418c0.005,1.685-0.221,3.336-0.723,4.947  c-0.488,1.566-1.204,3.015-2.246,4.29c-1.04,1.273-2.302,2.248-3.862,2.801c-1.682,0.595-3.379,0.599-5.079,0.078  c-1.533-0.472-2.858-1.305-4.035-2.382c-1.594-1.46-2.77-3.215-3.646-5.179c-0.728-1.637-1.199-3.349-1.439-5.121  c-0.205-1.512-0.231-3.026-0.057-4.544c0.207-1.805,0.676-3.534,1.502-5.158c0.759-1.494,1.765-2.791,3.128-3.79  c1.09-0.801,2.304-1.309,3.646-1.493c1.469-0.202,2.888,0.005,4.258,0.559c1.354,0.547,2.534,1.363,3.577,2.38  c1.819,1.768,3.067,3.896,3.91,6.273c0.486,1.377,0.806,2.795,0.962,4.246c0.062,0.575,0.073,1.155,0.104,1.733  C49.271,31.178,49.266,31.298,49.266,31.418z"/><path fill-rule="evenodd" clip-rule="evenodd" d="M75.76,52.066c0.017-2.171,0.51-4.272,1.424-6.28  c0.789-1.731,1.834-3.291,3.17-4.651c1.405-1.432,3.019-2.547,4.915-3.232c1.201-0.436,2.441-0.652,3.721-0.583  c1.897,0.104,3.558,0.791,4.95,2.091c1.274,1.192,2.055,2.675,2.517,4.342c0.335,1.204,0.416,2.431,0.391,3.674  c-0.048,2.236-0.636,4.334-1.608,6.333c-0.712,1.466-1.62,2.799-2.739,3.983c-1.451,1.54-3.134,2.739-5.135,3.463  c-1.244,0.45-2.526,0.663-3.849,0.573c-1.835-0.125-3.44-0.804-4.792-2.055c-1.281-1.187-2.073-2.664-2.537-4.331  C75.889,54.316,75.764,53.218,75.76,52.066z"/><path fill-rule="evenodd" clip-rule="evenodd" d="M12.768,40.661c0,0-3.812-4.328-10.768-3.81c0,0,9.637-3.015,13.513,1.619  L12.768,40.661z"/><path fill-rule="evenodd" clip-rule="evenodd" d="M34.005,18.455c0,0-2.722-5.085-9.612-6.171c0,0,10.071-0.731,12.785,4.666  L34.005,18.455z"/><path fill-rule="evenodd" clip-rule="evenodd" d="M69.153,16.32c0,0,2.11-5.368-1.524-11.32c0,0,7.082,7.2,4.728,12.763  L69.153,16.32z"/><path fill-rule="evenodd" clip-rule="evenodd" d="M90.403,39.154c0,0,3.895-4.255,2.634-11.114c0,0,4.031,9.259-0.161,13.609  L90.403,39.154z"/><text x="0" y="115" fill="#000000" font-size="5px" font-weight="bold" font-family="'Helvetica Neue', Helvetica, Arial-Unicode, Arial, Sans-serif">Created by Ealancheliyan s</text><text x="0" y="120" fill="#000000" font-size="5px" font-weight="bold" font-family="'Helvetica Neue', Helvetica, Arial-Unicode, Arial, Sans-serif">from the Noun Project</text></svg>