<svg xmlns="http://www.w3.org/2000/svg" xmlns:xlink="http://www.w3.org/1999/xlink" version="1.1" x="0px" y="0px" viewBox="0 0 100 125" enable-background="new 0 0 100 100" xml:space="preserve"><g><path fill="#000000" d="M71.7,5H27.8c-2,0-3.6,1.6-3.6,3.6v82.8c0,2,1.6,3.6,3.6,3.6h43.9c2,0,3.6-1.6,3.6-3.6V8.6   C75.3,6.6,73.7,5,71.7,5z M45.9,7.8h7.8c0.3,0,0.5,0.2,0.5,0.5c0,0.3-0.2,0.5-0.5,0.5h-7.8c-0.3,0-0.5-0.2-0.5-0.5   C45.4,8,45.6,7.8,45.9,7.8z M49.8,92.8c-1.2,0-2.1-1-2.1-2.1c0-1.2,1-2.1,2.1-2.1s2.1,1,2.1,2.1C51.9,91.8,50.9,92.8,49.8,92.8z    M72.4,86.1H27.1v-75h45.2V86.1z"/></g><text x="0" y="115" fill="#000000" font-size="5px" font-weight="bold" font-family="'Helvetica Neue', Helvetica, Arial-Unicode, Arial, Sans-serif">Created by Evan Shuster</text><text x="0" y="120" fill="#000000" font-size="5px" font-weight="bold" font-family="'Helvetica Neue', Helvetica, Arial-Unicode, Arial, Sans-serif">from the Noun Project</text></svg>