<svg xmlns="http://www.w3.org/2000/svg" xmlns:xlink="http://www.w3.org/1999/xlink" version="1.1" x="0px" y="0px" viewBox="0 0 100 125" enable-background="new 0 0 100 100" xml:space="preserve"><path d="M67.455,52.275c-0.544-2.23-1.664-4.148-3.166-5.846c-1.994-2.255-4.385-3.737-7.235-4.303  c-8.684-5.489-15.211-2.3-15.211-2.3c-0.403,0.197-0.584,0.693-0.403,1.103l1.996,4.519c-1.069,0.772-2.122,1.533-3.181,2.284  c-0.385,0.273-0.805,0.502-1.225,0.718c-0.39,0.201-0.765,0.129-1.085-0.177c-0.245-0.234-0.486-0.474-0.732-0.708  c-1.663-1.583-3.617-2.413-5.936-2.257c-0.204,0.014-0.505,0.173-0.562,0.335c-0.058,0.165,0.087,0.449,0.219,0.624  c0.741,0.985,1.564,1.914,2.236,2.942c0.382,0.584,0.616,1.302,0.761,1.993c0.207,0.98-0.164,1.902-0.704,2.692  c-0.724,1.06-1.565,2.04-2.335,3.07c-0.122,0.163-0.225,0.43-0.175,0.602c0.042,0.143,0.323,0.31,0.494,0.306  c0.741-0.017,1.496-0.021,2.219-0.162c1.685-0.329,3.026-1.278,4.202-2.494c0.666-0.689,0.976-0.77,1.841-0.355  c0.743,0.357,1.454,0.788,2.147,1.235c1.235,0.797,2.454,1.623,3.702,2.458l-0.002-0.001l-3.021,1.789  c-0.386,0.228-0.448,0.681-0.139,1.005c0,0,3.754,3.941,10.388-0.237l-0.002-0.001c3.557,0.142,6.918-0.598,10.072-2.263  c1.623-0.857,3.089-1.918,4.191-3.421C67.509,54.475,67.74,53.442,67.455,52.275z M58.55,52.04c-1.035,0-1.874-0.839-1.874-1.874  c0-0.593,0.276-1.121,0.706-1.465c0.322-0.285,0.743-0.457,1.197-0.453c0.551,0.006,1.048,0.27,1.374,0.674  c0.294,0.331,0.472,0.766,0.472,1.243C60.424,51.201,59.585,52.04,58.55,52.04z M79.709,25.188l0.001-10.347  c0-2.797-1.702-5.197-4.127-6.221c-0.808-0.342-1.697-0.532-2.631-0.532L50.022,8.089L27.047,8.088  c-0.933,0-1.822,0.189-2.631,0.532c-2.425,1.024-4.127,3.423-4.126,6.221l0.001,10.347h0.006L20.289,85.16  c0,3.727,3.021,6.749,6.748,6.749l11.869,0.001c-0.001,0.001-0.001,0.001-0.002,0.002l11.11-0.001l11.081,0.001  c-0.001-0.001-0.001-0.001-0.002-0.002l11.869-0.001c3.727,0,6.749-3.022,6.748-6.749l-0.007-59.973H79.709z M53.268,88.404h-6.536  c-0.97,0-1.756-0.786-1.756-1.756c0-0.34,0.098-0.656,0.265-0.925c0.071-0.115,0.154-0.222,0.249-0.317  c0.318-0.318,0.757-0.514,1.242-0.514h6.536c0.667,0,1.247,0.372,1.544,0.919c0.135,0.249,0.212,0.534,0.212,0.837  c0,0.303-0.077,0.588-0.212,0.837C54.515,88.032,53.935,88.404,53.268,88.404z M75.385,79.263c0,1.192-0.966,2.158-2.158,2.158  H58.118l-31.346,0c-1.192,0-2.158-0.966-2.158-2.158V25.188h0V19.35c0-0.794,0.43-1.486,1.069-1.861  c0.26-0.152,0.553-0.254,0.868-0.286c0.072-0.007,0.146-0.011,0.221-0.011h46.455c0.428,0,0.826,0.126,1.162,0.342  c0.598,0.384,0.996,1.053,0.996,1.816v5.838h0V79.263z"/><text x="0" y="115" fill="#000000" font-size="5px" font-weight="bold" font-family="'Helvetica Neue', Helvetica, Arial-Unicode, Arial, Sans-serif">Created by Gregor Črešnar</text><text x="0" y="120" fill="#000000" font-size="5px" font-weight="bold" font-family="'Helvetica Neue', Helvetica, Arial-Unicode, Arial, Sans-serif">from the Noun Project</text></svg>