<?xml version="1.0" encoding="UTF-8" standalone="no"?>
<svg width="89px" height="67px" viewBox="0 0 89 67" version="1.1" xmlns="http://www.w3.org/2000/svg" xmlns:xlink="http://www.w3.org/1999/xlink" xmlns:sketch="http://www.bohemiancoding.com/sketch/ns">
    <!-- Generator: Sketch 3.4.4 (17249) - http://www.bohemiancoding.com/sketch -->
    <title>Digital icon</title>
    <desc>Created with Sketch.</desc>
    <defs></defs>
    <g id="Welcome" stroke="none" stroke-width="1" fill="none" fill-rule="evenodd" sketch:type="MSPage">
        <g id="Clock-nav" sketch:type="MSArtboardGroup" transform="translate(-62.000000, -312.000000)" fill="#04DE71">
            <g id="Digital" sketch:type="MSLayerGroup" transform="translate(0.000000, 264.000000)">
                <g id="Digital-icon" transform="translate(60.000000, 48.000000)" sketch:type="MSShapeGroup">
                    <g id="Group">
                        <path d="M2.09539474,29.1316 L2.09539474,1.22945 L9.08922368,8.3482 L9.08922368,27.3293 L4.70655592,31.7915 L2.09539474,29.1316 L2.09539474,29.1316 Z M9.08922368,38.9069 L9.08922368,57.888 L2.09539474,65.00675 L2.09539474,37.1984 L4.70655592,34.44805 L9.08922368,38.9069 L9.08922368,38.9069 Z M39.8732664,0 L32.9716349,7.11875 L10.3042533,7.11875 L3.40262171,0 L39.8732664,0 L39.8732664,0 Z M39.8732664,66.3367 L3.40262171,66.3367 L10.3042533,59.21795 L32.9749276,59.21795 L39.8732664,66.3367 L39.8732664,66.3367 Z M33.8112895,29.6073 L37.3543026,33.165 L33.8112895,36.7227 L9.46130592,36.7227 L6.01049013,33.165 L9.46130592,29.6073 L33.8112895,29.6073 L33.8112895,29.6073 Z M34.1833717,27.3293 L34.1833717,8.3482 L41.1804934,1.22945 L41.1804934,29.1316 L38.628602,31.78815 L34.1833717,27.3293 L34.1833717,27.3293 Z M41.1837862,37.1984 L41.1837862,65.00675 L34.1866645,57.888 L34.1866645,38.9069 L38.6318947,34.44805 L41.1837862,37.1984 L41.1837862,37.1984 Z" id="Shape"></path>
                        <path d="M51.4868421,29.1316 L51.4868421,1.22945 L58.4806711,8.3482 L58.4806711,27.3293 L54.0980033,31.7915 L51.4868421,29.1316 L51.4868421,29.1316 Z M58.4806711,38.9069 L58.4806711,57.888 L51.4868421,65.00675 L51.4868421,37.1984 L54.0980033,34.44805 L58.4806711,38.9069 L58.4806711,38.9069 Z M89.2647138,0 L82.3630822,7.11875 L59.6924079,7.11875 L52.7907763,0 L89.2647138,0 L89.2647138,0 Z M89.2647138,66.3367 L52.7907763,66.3367 L59.6924079,59.21795 L82.3630822,59.21795 L89.2647138,66.3367 L89.2647138,66.3367 Z M83.2027368,29.6073 L86.74575,33.165 L83.2027368,36.7227 L58.8527533,36.7227 L55.4019375,33.165 L58.8527533,29.6073 L83.2027368,29.6073 L83.2027368,29.6073 Z M83.5748191,27.3293 L83.5748191,8.3482 L90.5719408,1.22945 L90.5719408,29.1316 L88.0200493,31.78815 L83.5748191,27.3293 L83.5748191,27.3293 Z M90.5719408,37.1984 L90.5719408,65.00675 L83.5748191,57.888 L83.5748191,38.9069 L88.0200493,34.44805 L90.5719408,37.1984 L90.5719408,37.1984 Z" id="Shape"></path>
                    </g>
                </g>
            </g>
        </g>
    </g>
</svg>