<?xml version="1.0" encoding="UTF-8" standalone="no"?>
<svg width="88px" height="88px" viewBox="0 0 88 88" version="1.1" xmlns="http://www.w3.org/2000/svg" xmlns:xlink="http://www.w3.org/1999/xlink" xmlns:sketch="http://www.bohemiancoding.com/sketch/ns">
    <!-- Generator: Sketch 3.4.4 (17249) - http://www.bohemiancoding.com/sketch -->
    <title>Calendar icon</title>
    <desc>Created with Sketch.</desc>
    <defs></defs>
    <g id="Welcome" stroke="none" stroke-width="1" fill="none" fill-rule="evenodd" sketch:type="MSPage">
        <g id="Tabs" sketch:type="MSArtboardGroup" transform="translate(-73.000000, -722.000000)" fill-opacity="0.949999988" fill="#FF3B30">
            <g id="Calendar" sketch:type="MSLayerGroup" transform="translate(73.000000, 713.000000)">
                <g id="Calendar-icon" transform="translate(0.000000, 8.000000)" sketch:type="MSShapeGroup">
                    <path d="M81.3967407,7.09720732 L79.1771852,7.09720732 C79.1771852,3.73691463 76.4502716,1.01264634 73.0878025,1.01264634 C69.7253333,1.01264634 66.9962469,3.73691463 66.9962469,7.09720732 L59.3826173,7.09720732 C59.3826173,3.73691463 56.6557037,1.01264634 53.2932346,1.01264634 C49.9307654,1.01264634 47.201679,3.73691463 47.201679,7.09720732 L40.3496296,7.09720732 C40.3496296,3.73691463 37.622716,1.01264634 34.2602469,1.01264634 C30.8945185,1.01264634 28.1686914,3.73691463 28.1686914,7.09720732 L21.316642,7.09720732 C21.316642,3.73691463 18.5875556,1.01264634 15.2250864,1.01264634 C11.8626173,1.01264634 9.1357037,3.73691463 9.1357037,7.09720732 L6.54024691,7.09720732 C3.17669136,7.09720732 0.450864198,9.82147561 0.450864198,13.1817683 L0.450864198,82.0482317 C0.450864198,85.4085244 3.17777778,88.1327927 6.54024691,88.1327927 L81.3967407,88.1327927 C84.7602963,88.1327927 87.4882963,85.407439 87.4882963,82.0482317 L87.4882963,13.1817683 C87.4882963,9.82147561 84.7602963,7.09720732 81.3967407,7.09720732 L81.3967407,7.09720732 Z M75.3062716,75.9636707 L12.6318025,75.9636707 L12.6318025,37.5221829 L75.3062716,37.5221829 L75.3062716,75.9636707 L75.3062716,75.9636707 Z" id="Shape"></path>
                </g>
            </g>
        </g>
    </g>
</svg>