<?xml version="1.0" encoding="UTF-8" standalone="no"?>
<svg width="64px" height="89px" viewBox="0 0 64 89" version="1.1" xmlns="http://www.w3.org/2000/svg" xmlns:xlink="http://www.w3.org/1999/xlink" xmlns:sketch="http://www.bohemiancoding.com/sketch/ns">
    <!-- Generator: Sketch 3.4.4 (17249) - http://www.bohemiancoding.com/sketch -->
    <title>Screensaver icon</title>
    <desc>Created with Sketch.</desc>
    <defs></defs>
    <g id="Welcome" stroke="none" stroke-width="1" fill="none" fill-rule="evenodd" sketch:type="MSPage">
        <g id="Screensaver-nav" sketch:type="MSArtboardGroup" transform="translate(-85.000000, -299.000000)" fill-opacity="0.949999988" fill="#00F5EA">
            <g id="Screensaver" sketch:type="MSLayerGroup" transform="translate(0.000000, 264.000000)">
                <g id="Screensaver-icon" transform="translate(85.000000, 35.000000)" sketch:type="MSShapeGroup">
                    <g id="Group">
                        <path d="M63.6896,18.2110952 L63.6906667,7.24820238 C63.6906667,4.28471429 61.8752,1.74185714 59.2885333,0.656904762 C58.4266667,0.294547619 57.4784,0.0932380952 56.4821333,0.0932380952 L32.0234667,0.094297619 L7.5168,0.0932380952 C6.5216,0.0932380952 5.57333333,0.293488095 4.7104,0.656904762 C2.12373333,1.74185714 0.308266667,4.28365476 0.309333333,7.24820238 L0.3104,18.2110952 L0.3168,18.2110952 L0.308266667,81.7528571 C0.308266667,85.7017024 3.53066667,88.9035833 7.50613333,88.9035833 L20.1664,88.9046429 C20.1653333,88.9057024 20.1653333,88.9057024 20.1642667,88.9067619 L32.0149333,88.9057024 L43.8346667,88.9067619 C43.8336,88.9057024 43.8336,88.9057024 43.8325333,88.9046429 L56.4928,88.9035833 C60.4682667,88.9035833 63.6917333,85.7017024 63.6906667,81.7528571 L63.6832,18.2100357 L63.6896,18.2100357 L63.6896,18.2110952 Z M35.4858667,85.1899524 L28.5141333,85.1899524 C27.4794667,85.1899524 26.6410667,84.3571667 26.6410667,83.3294286 C26.6410667,82.9691905 26.7456,82.634381 26.9237333,82.349369 C26.9994667,82.2275238 27.088,82.1141548 27.1893333,82.0135 C27.5285333,81.6765714 27.9968,81.4689048 28.5141333,81.4689048 L35.4858667,81.4689048 C36.1973333,81.4689048 36.816,81.8630476 37.1328,82.4426071 C37.2768,82.7064286 37.3589333,83.0083929 37.3589333,83.3294286 C37.3589333,83.6504643 37.2768,83.9524286 37.1328,84.21625 C36.816,84.7958095 36.1973333,85.1899524 35.4858667,85.1899524 L35.4858667,85.1899524 Z M56.7754667,77.7912976 L40.6592,77.7912976 L7.22346667,77.7912976 C5.952,77.7912976 4.9216,76.7677976 4.9216,75.5048452 L4.9216,18.2110952 L4.9216,12.0255952 C4.9216,11.1843333 5.38026667,10.4511429 6.06186667,10.0538214 C6.3392,9.89277381 6.65173333,9.78470238 6.98773333,9.75079762 C7.06453333,9.74338095 7.14346667,9.73914286 7.22346667,9.73914286 L56.7754667,9.73914286 C57.232,9.73914286 57.6565333,9.87264286 58.0149333,10.1015 C58.6528,10.5083571 59.0773333,11.2171786 59.0773333,12.0255952 L59.0773333,18.2110952 L59.0773333,75.5048452 C59.0773333,76.7677976 58.0469333,77.7912976 56.7754667,77.7912976 Z" id="Shape"></path>
                    </g>
                </g>
            </g>
        </g>
    </g>
</svg>